<svg width="66" height="62" viewBox="0 0 66 62" fill="none" xmlns="http://www.w3.org/2000/svg">
<path d="M33 60C49.9838 60 64 47.1485 64 31C64 14.8515 49.9838 2 33 2C16.0162 2 2 14.8515 2 31C2 47.1485 16.0162 60 33 60Z" fill="#11265F" stroke="#0DD0DC" stroke-width="4"/>
<path d="M16.946 41H11.6562L18.527 20.6364H25.0795L31.9503 41H26.6605L21.8778 25.767H21.7188L16.946 41ZM16.2401 32.9858H27.2969V36.7244H16.2401V32.9858ZM38.5476 41H33.2578L40.1286 20.6364H46.6811L53.5518 41H48.2621L43.4794 25.767H43.3203L38.5476 41ZM37.8416 32.9858H48.8984V36.7244H37.8416V32.9858Z" fill="white"/>
</svg>
