<svg width="62" height="58" viewBox="0 0 62 58" fill="none" xmlns="http://www.w3.org/2000/svg">
<path d="M31 57C47.5 57 61 44.5301 61 29C61 13.4699 47.5 1 31 1C14.5 1 1 13.4699 1 29C1 44.5301 14.5 57 31 57Z" fill="#AABFF6" stroke="#14EDFB" stroke-width="2"/>
<path d="M14.946 39H9.65625L16.527 18.6364H23.0795L29.9503 39H24.6605L19.8778 23.767H19.7188L14.946 39ZM14.2401 30.9858H25.2969V34.7244H14.2401V30.9858ZM36.5476 39H31.2578L38.1286 18.6364H44.6811L51.5518 39H46.2621L41.4794 23.767H41.3203L36.5476 39ZM35.8416 30.9858H46.8984V34.7244H35.8416V30.9858Z" fill="white"/>
</svg>
